# xmcd
#
# Track frame offsets:
#	150
#	10607
#	21007
#	33294
#	45914
#	59192
#	75466
#	87786
#	95845
#	107679
#	117152
#	130373
#	144235
#	158161
#	168737
#	179905
#	192370
#
# Disc length: 2761 seconds
#
# Revision: 1
# Processed by: cddbd v1.5.2PL0 Copyright (c) Steve Scherf et al.
# Submitted via: audiograbber 1.83.01
#
DISCID=df0ac711
DTITLE=Dolly Parton - Letter to Heaven: Songs of Faith and Inspiration
DYEAR=2010
DGENRE=Gospel
TTITLE0=I Believe
TTITLE1=Yes I See God
TTITLE2=Master's Hand,
TTITLE3=Heaven's Just A Prayer Away
TTITLE4=The Golden Streets Of Glory
TTITLE5=How Great Thou Art
TTITLE6=I'll Keep Climbing
TTITLE7=Book Of Life
TTITLE8=Wings Of A Dove
TTITLE9=Lord Hold My Hand
TTITLE10=Would You Know Him
TTITLE11=Comin' For To Carry Me Home
TTITLE12=Daddy Was An Old Time Preacher Man
TTITLE13=God's Coloring Book
TTITLE14=Letter To Heaven
TTITLE15=Sacred Memories
TTITLE16=The Seeker
EXTD=
EXTT0=
EXTT1=
EXTT2=
EXTT3=
EXTT4=
EXTT5=
EXTT6=
EXTT7=
EXTT8=
EXTT9=
EXTT10=
EXTT11=
EXTT12=
EXTT13=
EXTT14=
EXTT15=
EXTT16=
PLAYORDER=
